<?xml version="1.0" encoding="iso-8859-1"?>
<!-- Generator: Adobe Illustrator 19.0.0, SVG Export Plug-In . SVG Version: 6.00 Build 0)  -->
<svg version="1.1" id="Layer_1" xmlns="http://www.w3.org/2000/svg" xmlns:xlink="http://www.w3.org/1999/xlink" x="0px" y="0px"
	 viewBox="0 0 60 60" style="enable-background:new 0 0 60 60;" xml:space="preserve">
<g id="XMLID_10_">
	<path id="XMLID_15_" d="M30.092,10.968C20.1,10.968,12,19.068,12,29.06s8.1,18.092,18.092,18.092s18.092-8.1,18.092-18.092
		S40.084,10.968,30.092,10.968z M29.769,16.446c0.065-0.118,0.189-0.191,0.323-0.191c0.134,0,0.258,0.073,0.323,0.191
		c0.244,0.442,1.04,1.93,1.04,2.528c0,0.751-0.612,1.363-1.363,1.363c-0.752,0-1.363-0.611-1.363-1.363
		C28.729,18.375,29.525,16.887,29.769,16.446z M31.397,20.801v5.773c0,0.204-0.165,0.369-0.369,0.369h-1.872
		c-0.204,0-0.369-0.165-0.369-0.369v-5.773c0-0.204,0.165-0.369,0.369-0.369h1.872C31.232,20.431,31.397,20.597,31.397,20.801z
		 M38.781,30.868c0,0.67-0.167,1.296-0.453,1.832v5.103c0,0.204-0.165,0.369-0.369,0.369H22.256c-0.204,0-0.369-0.165-0.369-0.369
		v-5.044c-0.305-0.549-0.484-1.196-0.484-1.891v-2.499c0-0.592,0.44-1.074,0.981-1.074h15.415c0.541,0,0.981,0.482,0.981,1.074
		V30.868z"/>
	<path id="XMLID_4_" d="M32.865,32.54c-0.529,1.124-1.573,1.891-2.773,1.891c-1.2,0-2.244-0.767-2.773-1.891
		c-0.529,1.124-1.573,1.891-2.773,1.891c-0.723,0-1.388-0.281-1.92-0.749v3.752H37.59v-3.778c-0.537,0.484-1.214,0.775-1.951,0.775
		C34.438,34.431,33.395,33.663,32.865,32.54z"/>
	<rect id="XMLID_3_" x="29.525" y="21.17" width="1.133" height="5.035"/>
	<path id="XMLID_2_" d="M30.092,19.598c0.344,0,0.625-0.28,0.625-0.624c0-0.214-0.286-0.884-0.625-1.557
		c-0.338,0.672-0.625,1.343-0.625,1.557C29.467,19.318,29.747,19.598,30.092,19.598z"/>
	<path id="XMLID_1_" d="M37.799,28.033H22.384c-0.132,0-0.243,0.154-0.243,0.336v2.499c0,0.553,0.138,1.069,0.373,1.505
		c0.042,0.042,0.07,0.095,0.088,0.153c0.438,0.706,1.144,1.167,1.942,1.167c1.325,0,2.404-1.267,2.404-2.825
		c0-0.204,0.165-0.369,0.369-0.369c0.204,0,0.369,0.165,0.369,0.369c0,1.558,1.078,2.825,2.404,2.825
		c1.325,0,2.404-1.267,2.404-2.825c0-0.204,0.165-0.369,0.369-0.369c0.204,0,0.369,0.165,0.369,0.369
		c0,1.558,1.078,2.825,2.404,2.825c1.325,0,2.404-1.267,2.404-2.825v-2.499C38.042,28.187,37.931,28.033,37.799,28.033z"/>
</g>
</svg>
