<?xml version="1.0" encoding="iso-8859-1"?>
<!-- Generator: Adobe Illustrator 19.0.0, SVG Export Plug-In . SVG Version: 6.00 Build 0)  -->
<svg version="1.1" id="Layer_1" xmlns="http://www.w3.org/2000/svg" xmlns:xlink="http://www.w3.org/1999/xlink" x="0px" y="0px"
	 viewBox="0 0 60 60" style="enable-background:new 0 0 60 60;" xml:space="preserve">
<g>
	<path d="M31.53,18.573v1.953c0,0.202-0.164,0.366-0.366,0.366s-0.366-0.164-0.366-0.366v-0.701h-1.829
		c-0.013,0-0.025-0.001-0.038-0.002c-0.006,0-0.752-0.066-1.216,0.356c-0.26,0.237-0.393,0.6-0.393,1.079
		c0,0.12-0.059,0.233-0.158,0.301c0,0-1.585,1.097-2.286,1.585c-1.515,1.053-2.046,1.946-1.625,2.727
		c0.172,0.32,0.38,0.51,0.635,0.579c0.387,0.105,0.934-0.055,1.627-0.475c0.173-0.104,0.398-0.05,0.503,0.123
		c0.105,0.173,0.05,0.398-0.123,0.503c-0.322,0.195-0.621,0.34-0.901,0.442c0.171,0.353,0.508,0.856,1.051,0.861
		c0.201,0.003,0.355-0.051,0.46-0.164c0.201-0.216,0.218-0.618,0.208-0.741c-0.013-0.16,0.08-0.31,0.229-0.369l1.707-0.681
		c0.137-0.054,0.292-0.022,0.396,0.083c0.106,0.105,1.075,1.007,2.21,0.053c0.914-0.768,0.169-1.941,0.137-1.99
		c-0.11-0.169-0.063-0.396,0.107-0.506c0.169-0.111,0.395-0.064,0.506,0.105c0.399,0.605,0.854,2.001-0.278,2.953
		c-0.463,0.39-0.926,0.56-1.356,0.596c-0.36,2.496-2.637,3.084-3.564,3.217l0.511,5.269h6.414c0.092-0.799,0.366-2.888,0.894-4.634
		c0.182-0.603,0.428-1.199,0.699-1.812c-0.892,0.689-2.162,1.311-3.973,1.639c-0.022,0.004-0.044,0.006-0.065,0.006
		c-0.174,0-0.328-0.124-0.36-0.301c-0.036-0.199,0.096-0.389,0.295-0.425c3.287-0.594,4.609-2.232,5.127-3.267
		c0.636-1.636,0.992-3.312,0.187-5.03C35.199,19.049,32.499,18.63,31.53,18.573z M24.304,25.839c-0.285,0-0.515-0.231-0.515-0.515
		c0-0.285,0.23-0.515,0.515-0.515c0.285,0,0.515,0.231,0.515,0.515C24.819,25.608,24.589,25.839,24.304,25.839z M29.402,21.689
		c-0.26,0.19-0.882,0.372-1.072,0.112c-0.19-0.26,0.124-0.863,0.384-1.053c0.26-0.19,0.625-0.133,0.815,0.126
		C29.719,21.135,29.663,21.5,29.402,21.689z"/>
	<rect id="XMLID_4_" x="26.058" y="36.459" width="8.808" height="1.036"/>
	<polygon id="XMLID_3_" points="24.96,38.227 24.96,39.576 35.964,39.576 35.964,38.227 35.233,38.227 25.692,38.227 	"/>
	<path d="M30.058,11.128c-9.909,0-17.942,8.033-17.942,17.942s8.033,17.942,17.942,17.942S48,38.98,48,29.07
		S39.967,11.128,30.058,11.128z M37.392,26.139c-0.008,0.054-0.084,0.534-0.411,1.177c-0.215,0.543-0.453,1.072-0.685,1.586
		c-0.378,0.836-0.736,1.626-0.97,2.403c-0.488,1.617-0.757,3.592-0.856,4.423h0.763c0.202,0,0.366,0.164,0.366,0.366v1.402h0.732
		c0.202,0,0.366,0.164,0.366,0.366v2.081c0,0.202-0.164,0.366-0.366,0.366H24.594c-0.202,0-0.366-0.164-0.366-0.366v-2.081
		c0-0.202,0.164-0.366,0.366-0.366h0.732v-1.402c0-0.202,0.164-0.366,0.366-0.366h0.891l-0.54-5.56
		c-0.01-0.101,0.023-0.201,0.09-0.278c0.067-0.076,0.163-0.121,0.265-0.124c0.12-0.003,2.85-0.117,3.241-2.589
		c-0.373-0.097-0.694-0.278-0.928-0.464l-1.27,0.507c-0.02,0.277-0.104,0.702-0.401,1.021c-0.242,0.26-0.583,0.397-0.986,0.397
		c-0.005,0-0.011,0-0.016,0c-1.038-0.009-1.569-0.943-1.777-1.435c-0.041,0.003-0.084,0.012-0.123,0.012
		c-0.154,0-0.301-0.019-0.441-0.057c-0.453-0.123-0.819-0.439-1.088-0.939c-0.62-1.153,0.002-2.389,1.852-3.676
		c0.569-0.396,1.722-1.195,2.135-1.481c0.037-0.604,0.249-1.084,0.632-1.429c0.661-0.597,1.598-0.552,1.757-0.54h1.813V18.2
		c0-0.196,0.155-0.358,0.351-0.366c0.041-0.002,4.229-0.129,6.05,3.756c0.735,1.57,0.619,3.097,0.194,4.544
		C37.392,26.136,37.393,26.137,37.392,26.139z"/>
</g>
</svg>
