<?xml version="1.0" encoding="iso-8859-1"?>
<!-- Generator: Adobe Illustrator 19.0.0, SVG Export Plug-In . SVG Version: 6.00 Build 0)  -->
<svg version="1.1" id="Layer_1" xmlns="http://www.w3.org/2000/svg" xmlns:xlink="http://www.w3.org/1999/xlink" x="0px" y="0px"
	 viewBox="0 0 60 60" style="enable-background:new 0 0 60 60;" xml:space="preserve">
<g id="XMLID_25_">
	
		<rect id="XMLID_23_" x="35.292" y="20.103" transform="matrix(0.8245 0.5659 -0.5659 0.8245 18.031 -16.7949)" width="1.592" height="1.129"/>
	<rect id="XMLID_22_" x="28.905" y="18.77" width="2.473" height="0.737"/>
	<polygon id="XMLID_21_" points="31.746,18.033 32.363,18.033 32.363,17.025 27.919,17.025 27.919,18.033 28.537,18.033 	"/>
	<path id="XMLID_29_" d="M30.141,11.017c-9.965,0-18.043,8.078-18.043,18.043s8.078,18.043,18.043,18.043
		s18.043-8.078,18.043-18.043S40.106,11.017,30.141,11.017z M34.297,20.569l1.055-1.538c0.055-0.081,0.14-0.136,0.236-0.154
		c0.096-0.018,0.195,0.003,0.276,0.058l1.92,1.318c0.08,0.055,0.136,0.14,0.154,0.236c0.018,0.096-0.003,0.195-0.059,0.276
		l-1.056,1.538c-0.055,0.081-0.14,0.136-0.236,0.154c-0.022,0.004-0.045,0.006-0.067,0.006c-0.074,0-0.147-0.022-0.209-0.065
		l-1.92-1.318C34.224,20.966,34.182,20.737,34.297,20.569z M27.182,16.657c0-0.203,0.165-0.368,0.368-0.368h5.181
		c0.204,0,0.368,0.165,0.368,0.368v1.745c0,0.203-0.165,0.368-0.368,0.368h-0.617v1.105c0,0.203-0.165,0.368-0.368,0.368h-3.209
		c-0.204,0-0.368-0.165-0.368-0.368V18.77h-0.618c-0.204,0-0.368-0.165-0.368-0.368V16.657z M30.141,38.885
		c-5.029,0-9.12-4.091-9.12-9.12c0-5.029,4.091-9.12,9.12-9.12c5.029,0,9.12,4.091,9.12,9.12
		C39.261,34.794,35.17,38.885,30.141,38.885z"/>
	<path id="XMLID_26_" d="M36.282,29.397h2.233c-0.188-4.33-3.676-7.818-8.006-8.006v2.233c0,0.203-0.165,0.368-0.368,0.368
		c-0.204,0-0.368-0.165-0.368-0.368v-2.233c-4.33,0.188-7.817,3.676-8.006,8.006h2.233c0.204,0,0.368,0.165,0.368,0.368
		c0,0.203-0.165,0.368-0.368,0.368h-2.233c0.188,4.33,3.676,7.818,8.006,8.006v-2.234c0-0.203,0.165-0.368,0.368-0.368
		c0.204,0,0.368,0.165,0.368,0.368v2.234c4.33-0.188,7.817-3.676,8.006-8.006h-2.233c-0.204,0-0.368-0.165-0.368-0.368
		C35.913,29.562,36.078,29.397,36.282,29.397z M33.13,28.954l-2.851,1.153c-0.004,0.002-0.008,0.001-0.012,0.002
		c-0.04,0.015-0.082,0.025-0.126,0.025c-0.039,0-0.077-0.007-0.114-0.019c-0.002-0.001-0.005-0.001-0.007-0.001l-4.622-1.604
		c-0.192-0.067-0.294-0.277-0.227-0.469c0.066-0.192,0.276-0.294,0.469-0.227l4.492,1.559l2.723-1.101
		c0.188-0.076,0.403,0.015,0.479,0.203C33.409,28.663,33.318,28.878,33.13,28.954z"/>
</g>
</svg>
