<?xml version="1.0" encoding="iso-8859-1"?>
<!-- Generator: Adobe Illustrator 19.0.0, SVG Export Plug-In . SVG Version: 6.00 Build 0)  -->
<svg version="1.1" id="Layer_1" xmlns="http://www.w3.org/2000/svg" xmlns:xlink="http://www.w3.org/1999/xlink" x="0px" y="0px"
	 viewBox="0 0 60 60" style="enable-background:new 0 0 60 60;" xml:space="preserve">
<g>
	<path d="M36.9,21.88c-0.431-0.125-6.495-1.643-6.901-1.706c-0.001,0-0.006,0-0.011,0.001c-0.022,0.008-0.044,0.014-0.067,0.018
		c-0.344,0.074-6.555,1.643-6.775,1.711c-0.185,0.053-0.294,0.212-0.294,0.409v7.585c0,1.855,0.697,3.527,2.073,4.969
		c1.245,1.314,2.799,2.377,4.752,3.25c0.104,0.041,0.215,0.086,0.346,0.086c0.045,0,0.148-0.011,0.328-0.088
		c1.939-0.844,3.5-1.907,4.77-3.247c1.375-1.466,2.073-3.138,2.073-4.97v-7.609C37.194,22.109,37.076,21.946,36.9,21.88z
		 M33.085,27.125H30.39v5.934c0,0.203-0.164,0.367-0.367,0.367c-0.203,0-0.367-0.164-0.367-0.367v-5.934h-2.695
		c-0.203,0-0.367-0.164-0.367-0.367c0-0.203,0.164-0.367,0.367-0.367h2.695v-2.735c0-0.203,0.164-0.367,0.367-0.367
		c0.203,0,0.367,0.164,0.367,0.367v2.735h2.695c0.203,0,0.367,0.164,0.367,0.367C33.452,26.961,33.288,27.125,33.085,27.125z"/>
	<path d="M30.023,11.212c-9.929,0-17.977,8.048-17.977,17.977s8.048,17.977,17.977,17.977S48,39.118,48,29.189
		S39.952,11.212,30.023,11.212z M37.928,29.898c0,2.025-0.765,3.866-2.273,5.473c-1.34,1.415-2.979,2.532-5.013,3.417
		c-0.231,0.099-0.439,0.149-0.619,0.149c-0.273,0-0.487-0.086-0.615-0.138c-2.074-0.926-3.704-2.043-5.015-3.427
		c-1.509-1.582-2.275-3.424-2.275-5.474v-7.585c0-0.525,0.325-0.971,0.809-1.109l0.001,0.002c0.491-0.131,5.837-1.498,6.788-1.713
		c0.118-0.052,0.24-0.052,0.307-0.052c0.31,0,6.539,1.596,7.116,1.752l0.002-0.005c0.471,0.168,0.787,0.611,0.787,1.102V29.898z"/>
</g>
</svg>
