<?xml version="1.0" encoding="utf-8"?>
<!-- Generator: Adobe Illustrator 17.0.0, SVG Export Plug-In . SVG Version: 6.00 Build 0)  -->
<!DOCTYPE svg PUBLIC "-//W3C//DTD SVG 1.1//EN" "http://www.w3.org/Graphics/SVG/1.1/DTD/svg11.dtd">
<svg version="1.1" id="Layer_1" xmlns="http://www.w3.org/2000/svg" xmlns:xlink="http://www.w3.org/1999/xlink" x="0px" y="0px"
	 width="311px" height="314px" viewBox="144.14 187.445 311 314" enable-background="new 144.14 187.445 311 314"
	 xml:space="preserve">
<path fill="#008FD5" d="M421.685,423.07c14.232-22.995,21.715-49.366,21.715-76.541c0-80.375-65.385-145.761-145.76-145.761
	c-80.375,0-145.76,65.386-145.76,145.761s65.386,145.767,145.76,145.767c27.18,0,53.545-7.501,76.535-21.716l57.189,21.174
	c1.012,0.369,2.059,0.548,3.102,0.548c2.326,0,4.602-0.905,6.314-2.607c2.465-2.464,3.281-6.131,2.072-9.411L421.685,423.07z"/>
<path fill="#008FD5" d="M376.21,452.293c-2.666-0.988-5.648-0.637-8.035,0.929c-20.961,13.882-45.344,21.216-70.541,21.216
	c-70.529,0-127.902-57.379-127.902-127.908c0-70.528,57.379-127.901,127.902-127.901c70.529,0,127.902,57.379,127.902,127.901
	c0,25.186-7.334,49.587-21.217,70.547c-1.582,2.363-1.916,5.346-0.928,8.03l15.965,43.152L376.21,452.293z"/>
<path fill="#FFFFFF" d="M345.126,310.104h-11.43l4.078-17.424c1.119-4.805-1.858-9.603-6.662-10.728
	c-4.846-1.119-9.602,1.863-10.732,6.661l-5.025,21.484h-25.62l4.072-17.424c1.125-4.805-1.857-9.603-6.661-10.728
	c-4.786-1.119-9.602,1.857-10.727,6.661l-5.024,21.483h-15.602c-4.935,0-8.929,3.995-8.929,8.93c0,4.935,3.994,8.929,8.929,8.929
	h11.423l-8.685,37.152h-15.603c-4.935,0-8.929,4-8.929,8.929c0,4.929,3.995,8.93,8.929,8.93h11.424l-4.072,17.411
	c-1.125,4.805,1.857,9.608,6.661,10.733c0.685,0.154,1.363,0.232,2.042,0.232c4.054,0,7.721-2.78,8.686-6.894l5.018-21.477h25.62
	l-4.071,17.411c-1.125,4.805,1.857,9.608,6.661,10.733c0.686,0.154,1.369,0.232,2.043,0.232c4.059,0,7.727-2.78,8.689-6.893
	l5.025-21.478h15.596c4.93,0,8.93-4.001,8.93-8.93c0-4.929-4-8.929-8.93-8.929h-11.424l8.68-37.151h15.602
	c4.93,0,8.93-3.995,8.93-8.93S350.054,310.104,345.126,310.104z M302.498,365.114h-25.627l8.685-37.151h25.621L302.498,365.114z"/>
</svg>
