<?xml version="1.0" encoding="utf-8"?>
<!-- Generated by IcoMoon.io -->
<!DOCTYPE svg PUBLIC "-//W3C//DTD SVG 1.1//EN" "http://www.w3.org/Graphics/SVG/1.1/DTD/svg11.dtd">
<svg version="1.1" xmlns="http://www.w3.org/2000/svg" xmlns:xlink="http://www.w3.org/1999/xlink" width="32" height="32" viewBox="0 0 32 32">
<path fill="#000" d="M17.072 8.263v1.365c0 0.141-0.114 0.256-0.256 0.256s-0.256-0.115-0.256-0.256v-0.49h-1.279c-0.009 0-0.017-0.001-0.026-0.001-0.004-0-0.526-0.046-0.85 0.249-0.182 0.166-0.274 0.42-0.274 0.754 0 0.084-0.041 0.163-0.11 0.21 0 0-1.108 0.767-1.598 1.108-1.059 0.736-1.431 1.36-1.136 1.907 0.121 0.224 0.266 0.357 0.444 0.405 0.271 0.074 0.653-0.038 1.137-0.332 0.121-0.073 0.278-0.035 0.352 0.086s0.035 0.278-0.086 0.352c-0.225 0.137-0.434 0.238-0.63 0.309 0.119 0.247 0.355 0.599 0.734 0.602 0.14 0.002 0.248-0.036 0.322-0.115 0.141-0.151 0.153-0.432 0.146-0.518-0.009-0.112 0.056-0.217 0.16-0.258l1.194-0.476c0.096-0.038 0.205-0.015 0.277 0.058 0.074 0.073 0.752 0.704 1.545 0.037 0.639-0.537 0.119-1.357 0.096-1.392-0.077-0.118-0.044-0.277 0.075-0.354s0.276-0.045 0.354 0.073c0.279 0.423 0.597 1.399-0.195 2.064-0.324 0.272-0.647 0.391-0.948 0.416-0.251 1.745-1.844 2.156-2.492 2.249l0.357 3.684h4.484c0.064-0.559 0.256-2.019 0.625-3.24 0.127-0.421 0.299-0.838 0.488-1.267-0.624 0.482-1.512 0.917-2.778 1.146-0.015 0.003-0.031 0.004-0.046 0.004-0.122 0-0.229-0.087-0.252-0.21-0.025-0.139 0.067-0.272 0.207-0.297 2.298-0.415 3.223-1.56 3.585-2.284 0.445-1.144 0.693-2.316 0.131-3.517-0.934-1.994-2.822-2.288-3.499-2.328zM12.020 13.343c-0.199 0-0.36-0.161-0.36-0.36s0.161-0.36 0.36-0.36c0.199 0 0.36 0.161 0.36 0.36s-0.161 0.36-0.36 0.36zM15.585 10.442c-0.181 0.133-0.616 0.26-0.75 0.079s0.087-0.603 0.269-0.736c0.182-0.133 0.437-0.093 0.57 0.088s0.093 0.437-0.089 0.569z"></path>
<path fill="#000" d="M13.247 20.767h6.158v0.724h-6.158v-0.724z"></path>
<path fill="#000" d="M12.479 22.004v0.943h7.693v-0.943h-7.182z"></path>
<path fill="#000" d="M16.043 3.058c-6.928 0-12.544 5.616-12.544 12.544s5.616 12.544 12.544 12.544 12.544-5.616 12.544-12.544-5.616-12.544-12.544-12.544zM21.171 13.552c-0.005 0.038-0.059 0.373-0.287 0.823-0.15 0.379-0.317 0.75-0.479 1.108-0.264 0.585-0.514 1.137-0.678 1.68-0.341 1.131-0.529 2.511-0.599 3.092h0.533c0.142 0 0.256 0.115 0.256 0.256v0.98h0.512c0.142 0 0.256 0.115 0.256 0.256v1.455c0 0.141-0.114 0.256-0.256 0.256h-8.205c-0.142 0-0.256-0.115-0.256-0.256v-1.455c0-0.141 0.114-0.256 0.256-0.256h0.511v-0.98c0-0.141 0.114-0.256 0.256-0.256h0.623l-0.377-3.887c-0.007-0.071 0.016-0.141 0.063-0.194s0.114-0.084 0.185-0.087c0.084-0.002 1.993-0.082 2.266-1.81-0.261-0.068-0.485-0.194-0.648-0.324l-0.888 0.354c-0.014 0.194-0.072 0.491-0.281 0.714-0.169 0.182-0.408 0.277-0.689 0.277-0.004 0-0.007 0-0.011 0-0.726-0.006-1.097-0.659-1.243-1.003-0.028 0.002-0.059 0.008-0.086 0.008-0.108 0-0.21-0.013-0.308-0.040-0.316-0.086-0.572-0.307-0.761-0.656-0.434-0.806 0.002-1.671 1.295-2.57 0.398-0.277 1.204-0.835 1.493-1.036 0.026-0.422 0.174-0.758 0.442-0.999 0.462-0.417 1.117-0.386 1.229-0.378h1.268v-0.624c0-0.137 0.108-0.25 0.245-0.256 0.028-0.002 2.957-0.090 4.229 2.626 0.514 1.098 0.432 2.165 0.136 3.177 0 0.001 0 0.002 0 0.003z"></path>
</svg>
