<?xml version="1.0" encoding="utf-8"?>
<!-- Generated by IcoMoon.io -->
<!DOCTYPE svg PUBLIC "-//W3C//DTD SVG 1.1//EN" "http://www.w3.org/Graphics/SVG/1.1/DTD/svg11.dtd">
<svg version="1.1" xmlns="http://www.w3.org/2000/svg" xmlns:xlink="http://www.w3.org/1999/xlink" width="32" height="32" viewBox="0 0 32 32">
<path fill="#000" d="M22.36 11.065c-0.297 0-0.545 0.248-0.545 0.545s0.248 0.545 0.545 0.545c2.008 0 3.645 1.636 3.645 3.645s-1.636 3.645-3.645 3.645c-0.297 0-0.545 0.248-0.545 0.545s0.248 0.545 0.545 0.545c2.604 0 4.736-2.133 4.736-4.736 0.001-2.604-2.132-4.736-4.736-4.736z"></path>
<path fill="#000" d="M18.541 10.644c0.272-0.124 0.421-0.421 0.297-0.719-0.124-0.273-0.421-0.421-0.719-0.297l-10.712 4.389c-0.199 0.075-0.347 0.273-0.347 0.496v2.803c0 0.223 0.124 0.421 0.347 0.496l1.984 0.819c0 0.025-0.025 0.025-0.025 0.049l-0.571 1.387c-0.297 0.695 0.049 1.513 0.744 1.811l2.951 1.215c0.173 0.075 0.347 0.099 0.521 0.099 0.545 0 1.067-0.323 1.289-0.868l0.571-1.389c0-0.025 0-0.049 0.025-0.075l3.248 1.315c0.075 0.025 0.148 0.049 0.199 0.049 0.224 0 0.421-0.124 0.496-0.347 0.124-0.273-0.025-0.595-0.297-0.719l-10.391-4.191v-2.083l10.389-4.24zM13.88 20.563l-0.571 1.388c-0.049 0.149-0.248 0.223-0.396 0.149l-2.951-1.215c-0.149-0.049-0.223-0.248-0.149-0.397l0.571-1.389c0-0.025 0-0.025 0-0.049l3.521 1.439c-0.001 0.025-0.025 0.049-0.025 0.075z"></path>
<path fill="#000" d="M20.203 8.809c-0.297 0-0.545 0.248-0.545 0.545v13.117c0 0.297 0.248 0.545 0.545 0.545s0.545-0.248 0.545-0.545v-13.117c0-0.297-0.247-0.545-0.545-0.545z"></path>
<path fill="#000" d="M5.449 14.091c-0.297 0-0.545 0.248-0.545 0.545v2.803c0 0.297 0.248 0.545 0.545 0.545s0.545-0.248 0.545-0.545v-2.803c0-0.323-0.248-0.545-0.545-0.545z"></path>
<path fill="#000" d="M24.493 15.827c0-1.315-1.067-2.405-2.405-2.405-0.297 0-0.545 0.248-0.545 0.545s0.248 0.545 0.545 0.545c0.72 0 1.315 0.595 1.315 1.315s-0.595 1.315-1.315 1.315c-0.297 0-0.545 0.248-0.545 0.545s0.248 0.545 0.545 0.545c1.339-0.025 2.405-1.092 2.405-2.405z"></path>
</svg>
