<?xml version="1.0" encoding="utf-8"?>
<!-- Generated by IcoMoon.io -->
<!DOCTYPE svg PUBLIC "-//W3C//DTD SVG 1.1//EN" "http://www.w3.org/Graphics/SVG/1.1/DTD/svg11.dtd">
<svg version="1.1" xmlns="http://www.w3.org/2000/svg" xmlns:xlink="http://www.w3.org/1999/xlink" width="32" height="32" viewBox="0 0 32 32">
<path fill="#000" d="M25.404 23.836l-5.053-5.053c-0.053-0.055-0.081-0.081-0.135-0.108 2.297-3.027 2.053-7.377-0.703-10.133-3.027-3.027-7.944-3.027-10.971 0s-3.027 7.944 0 10.971c2.756 2.756 7.107 3 10.133 0.703 0.027 0.055 0.081 0.108 0.108 0.135l5.053 5.053c0.432 0.432 1.135 0.432 1.568 0 0.431-0.432 0.431-1.133-0.001-1.567zM10.001 18.053c-2.216-2.216-2.216-5.837 0-8.052 2.216-2.216 5.837-2.216 8.052 0 2.216 2.216 2.216 5.837 0 8.052-2.216 2.216-5.836 2.243-8.052 0z"></path>
</svg>
