<svg style="position: absolute; width: 0; height: 0; overflow: hidden;" version="1.1" xmlns="http://www.w3.org/2000/svg" xmlns:xlink="http://www.w3.org/1999/xlink">
<defs>
<symbol id="icon-close" viewBox="0 0 32 32">
<title>close</title>
<path class="path1" d="M25.333 8.547l-1.88-1.88-7.453 7.453-7.453-7.453-1.88 1.88 7.453 7.453-7.453 7.453 1.88 1.88 7.453-7.453 7.453 7.453 1.88-1.88-7.453-7.453 7.453-7.453z"></path>
</symbol>
<symbol id="icon-hash-tag" viewBox="0 0 32 32">
<title>hash-tag</title>
<path class="path1" fill="#008fd5" d="M28.285 24.013c1.45-2.343 2.213-5.031 2.213-7.8 0-8.191-6.663-14.855-14.855-14.855s-14.855 6.664-14.855 14.855 6.664 14.855 14.855 14.855c2.77 0 5.457-0.764 7.8-2.213l5.828 2.158c0.103 0.038 0.21 0.056 0.316 0.056 0.237 0 0.469-0.092 0.643-0.266 0.251-0.251 0.334-0.625 0.211-0.959l-2.157-5.831z"></path>
<path class="path2" fill="#008fd5" d="M23.65 26.991c-0.272-0.101-0.576-0.065-0.819 0.095-2.136 1.415-4.621 2.162-7.189 2.162-7.188 0-13.035-5.848-13.035-13.035s5.848-13.034 13.035-13.034c7.188 0 13.035 5.848 13.035 13.034 0 2.567-0.747 5.053-2.162 7.189-0.161 0.241-0.195 0.545-0.095 0.818l1.627 4.398-4.397-1.627z"></path>
<path class="path3" fill="#fff" d="M20.483 12.5h-1.165l0.416-1.776c0.114-0.49-0.189-0.979-0.679-1.093-0.494-0.114-0.979 0.19-1.094 0.679l-0.512 2.189h-2.611l0.415-1.776c0.115-0.49-0.189-0.979-0.679-1.093-0.488-0.114-0.979 0.189-1.093 0.679l-0.512 2.189h-1.59c-0.503 0-0.91 0.407-0.91 0.91s0.407 0.91 0.91 0.91h1.164l-0.885 3.786h-1.59c-0.503 0-0.91 0.408-0.91 0.91s0.407 0.91 0.91 0.91h1.164l-0.415 1.774c-0.115 0.49 0.189 0.979 0.679 1.094 0.070 0.016 0.139 0.024 0.208 0.024 0.413 0 0.787-0.283 0.885-0.703l0.511-2.189h2.611l-0.415 1.774c-0.115 0.49 0.189 0.979 0.679 1.094 0.070 0.016 0.14 0.024 0.208 0.024 0.414 0 0.787-0.283 0.886-0.702l0.512-2.189h1.589c0.502 0 0.91-0.408 0.91-0.91s-0.408-0.91-0.91-0.91h-1.164l0.885-3.786h1.59c0.502 0 0.91-0.407 0.91-0.91s-0.406-0.91-0.908-0.91zM16.138 18.106h-2.612l0.885-3.786h2.611l-0.884 3.786z"></path>
</symbol>
<symbol id="icon-menu" viewBox="0 0 32 32">
<title>menu</title>
<path class="path1" d="M4 8h24v2.667h-24v-2.667zM4 14.667h24v2.667h-24v-2.667zM4 21.333h24v2.667h-24v-2.667z"></path>
</symbol>
<symbol id="icon-chess" viewBox="0 0 32 32">
<title>chess</title>
<path class="path1" d="M16.816 9.906v1.042c0 0.108-0.087 0.195-0.195 0.195s-0.195-0.087-0.195-0.195v-0.374h-0.975c-0.007 0-0.013-0.001-0.020-0.001-0.003 0-0.401-0.035-0.649 0.19-0.139 0.126-0.21 0.32-0.21 0.575 0 0.064-0.031 0.124-0.084 0.161 0 0-0.845 0.585-1.219 0.845-0.808 0.562-1.091 1.038-0.867 1.454 0.092 0.171 0.203 0.272 0.339 0.309 0.206 0.056 0.498-0.029 0.868-0.253 0.092-0.055 0.212-0.027 0.268 0.066s0.027 0.212-0.066 0.268c-0.172 0.104-0.331 0.181-0.481 0.236 0.091 0.188 0.271 0.457 0.561 0.459 0.107 0.002 0.189-0.027 0.245-0.087 0.107-0.115 0.116-0.33 0.111-0.395-0.007-0.085 0.043-0.165 0.122-0.197l0.91-0.363c0.073-0.029 0.156-0.012 0.211 0.044 0.057 0.056 0.573 0.537 1.179 0.028 0.487-0.41 0.090-1.035 0.073-1.061-0.059-0.090-0.034-0.211 0.057-0.27s0.211-0.034 0.27 0.056c0.213 0.323 0.455 1.067-0.148 1.575-0.247 0.208-0.494 0.299-0.723 0.318-0.192 1.331-1.406 1.645-1.901 1.716l0.273 2.81h3.421c0.049-0.426 0.195-1.54 0.477-2.471 0.097-0.322 0.228-0.639 0.373-0.966-0.476 0.367-1.153 0.699-2.119 0.874-0.012 0.002-0.023 0.003-0.035 0.003-0.093 0-0.175-0.066-0.192-0.161-0.019-0.106 0.051-0.207 0.157-0.227 1.753-0.317 2.458-1.19 2.734-1.742 0.339-0.873 0.529-1.766 0.1-2.683-0.713-1.523-2.153-1.747-2.67-1.777zM12.962 13.781c-0.152 0-0.275-0.123-0.275-0.275s0.123-0.275 0.275-0.275 0.275 0.123 0.275 0.275c0 0.151-0.123 0.275-0.275 0.275zM15.681 11.567c-0.139 0.101-0.47 0.198-0.572 0.060s0.066-0.46 0.205-0.562c0.139-0.101 0.333-0.071 0.435 0.067 0.101 0.139 0.071 0.334-0.068 0.435z"></path>
<path class="path2" d="M13.898 19.445h4.698v0.553h-4.698v-0.553z"></path>
<path class="path3" d="M13.312 20.388v0.719h5.869v-0.719h-5.478z"></path>
<path class="path4" d="M16.031 5.935c-5.285 0-9.569 4.284-9.569 9.569s4.284 9.569 9.569 9.569 9.569-4.284 9.569-9.569-4.284-9.569-9.569-9.569zM19.942 13.941c-0.004 0.029-0.045 0.285-0.219 0.628-0.115 0.29-0.242 0.572-0.365 0.846-0.202 0.446-0.393 0.867-0.517 1.282-0.26 0.862-0.404 1.916-0.457 2.359h0.407c0.108 0 0.195 0.087 0.195 0.195v0.748h0.39c0.108 0 0.195 0.087 0.195 0.195v1.11c0 0.108-0.087 0.195-0.195 0.195h-6.26c-0.108 0-0.195-0.087-0.195-0.195v-1.11c0-0.108 0.087-0.195 0.195-0.195h0.39v-0.748c0-0.108 0.087-0.195 0.195-0.195h0.475l-0.288-2.965c-0.005-0.054 0.012-0.107 0.048-0.148s0.087-0.065 0.141-0.066c0.064-0.002 1.52-0.062 1.729-1.381-0.199-0.052-0.37-0.148-0.495-0.247l-0.677 0.27c-0.011 0.148-0.055 0.374-0.214 0.545-0.129 0.139-0.311 0.212-0.526 0.212-0.003 0-0.006 0-0.009 0-0.554-0.005-0.837-0.503-0.948-0.765-0.022 0.002-0.045 0.006-0.066 0.006-0.082 0-0.161-0.010-0.235-0.030-0.242-0.066-0.437-0.234-0.58-0.501-0.331-0.615 0.001-1.274 0.988-1.961 0.303-0.211 0.918-0.637 1.139-0.79 0.020-0.322 0.133-0.578 0.337-0.762 0.353-0.318 0.852-0.294 0.937-0.288h0.967v-0.476c0-0.105 0.083-0.191 0.187-0.195 0.022-0.001 2.255-0.069 3.227 2.003 0.392 0.837 0.33 1.652 0.103 2.423-0.001 0.001 0 0.002-0.001 0.003z"></path>
</symbol>
<symbol id="icon-birthday" viewBox="0 0 32 32">
<title>birthday</title>
<path class="path1" d="M16.049 5.85c-5.329 0-9.649 4.32-9.649 9.649s4.32 9.649 9.649 9.649 9.649-4.32 9.649-9.649-4.32-9.649-9.649-9.649zM15.877 8.771c0.035-0.063 0.101-0.102 0.172-0.102s0.138 0.039 0.172 0.102c0.13 0.236 0.555 1.029 0.555 1.348 0 0.401-0.326 0.727-0.727 0.727s-0.727-0.326-0.727-0.727c0-0.319 0.425-1.113 0.555-1.348zM16.745 11.094v3.079c0 0.109-0.088 0.197-0.197 0.197h-0.998c-0.109 0-0.197-0.088-0.197-0.197v-3.079c0-0.109 0.088-0.197 0.197-0.197h0.998c0.109-0.001 0.197 0.088 0.197 0.197zM20.683 16.463c0 0.357-0.089 0.691-0.242 0.977v2.722c0 0.109-0.088 0.197-0.197 0.197h-8.375c-0.109 0-0.197-0.088-0.197-0.197v-2.69c-0.163-0.293-0.258-0.638-0.258-1.009v-1.333c0-0.316 0.235-0.573 0.523-0.573h8.221c0.289 0 0.523 0.257 0.523 0.573v1.333z"></path>
<path class="path2" d="M17.528 17.355c-0.282 0.599-0.839 1.009-1.479 1.009s-1.197-0.409-1.479-1.009c-0.282 0.599-0.839 1.009-1.479 1.009-0.386 0-0.74-0.15-1.024-0.399v2.001h7.981v-2.015c-0.286 0.258-0.647 0.413-1.041 0.413-0.641 0-1.197-0.41-1.479-1.009z"></path>
<path class="path3" d="M15.747 11.291h0.604v2.685h-0.604v-2.685z"></path>
<path class="path4" d="M16.049 10.452c0.183 0 0.333-0.149 0.333-0.333 0-0.114-0.153-0.471-0.333-0.83-0.18 0.358-0.333 0.716-0.333 0.83 0 0.183 0.149 0.333 0.333 0.333z"></path>
<path class="path5" d="M20.159 14.951h-8.221c-0.070 0-0.13 0.082-0.13 0.179v1.333c0 0.295 0.074 0.57 0.199 0.803 0.022 0.022 0.037 0.051 0.047 0.082 0.234 0.377 0.61 0.622 1.036 0.622 0.707 0 1.282-0.676 1.282-1.507 0-0.109 0.088-0.197 0.197-0.197s0.197 0.088 0.197 0.197c0 0.831 0.575 1.507 1.282 1.507s1.282-0.676 1.282-1.507c0-0.109 0.088-0.197 0.197-0.197s0.197 0.088 0.197 0.197c0 0.831 0.575 1.507 1.282 1.507s1.282-0.676 1.282-1.507v-1.333c0.001-0.097-0.058-0.179-0.129-0.179z"></path>
</symbol>
<symbol id="icon-clock" viewBox="0 0 32 32">
<title>clock</title>
<path class="path1" d="M19.068 10.534l0.7 0.48-0.341 0.496-0.7-0.48 0.341-0.496z"></path>
<path class="path2" d="M15.416 10.011h1.319v0.393h-1.319v-0.393z"></path>
<path class="path3" d="M16.931 9.618h0.329v-0.538h-2.37v0.538h0.33z"></path>
<path class="path4" d="M16.075 5.876c-5.315 0-9.623 4.308-9.623 9.623s4.308 9.623 9.623 9.623 9.623-4.308 9.623-9.623-4.308-9.623-9.623-9.623zM18.292 10.97l0.563-0.82c0.029-0.043 0.075-0.073 0.126-0.082s0.104 0.002 0.147 0.031l1.024 0.703c0.043 0.029 0.073 0.075 0.082 0.126s-0.002 0.104-0.031 0.147l-0.563 0.82c-0.029 0.043-0.075 0.073-0.126 0.082-0.012 0.002-0.024 0.003-0.036 0.003-0.039 0-0.078-0.012-0.111-0.035l-1.024-0.703c-0.089-0.061-0.111-0.183-0.050-0.273zM14.497 8.884c0-0.108 0.088-0.196 0.196-0.196h2.763c0.109 0 0.196 0.088 0.196 0.196v0.931c0 0.108-0.088 0.196-0.196 0.196h-0.329v0.589c0 0.108-0.088 0.196-0.196 0.196h-1.711c-0.109 0-0.196-0.088-0.196-0.196v-0.589h-0.33c-0.109 0-0.196-0.088-0.196-0.196v-0.931zM16.075 20.739c-2.682 0-4.864-2.182-4.864-4.864s2.182-4.864 4.864-4.864c2.682 0 4.864 2.182 4.864 4.864s-2.182 4.864-4.864 4.864z"></path>
<path class="path5" d="M19.35 15.678h1.191c-0.1-2.309-1.961-4.17-4.27-4.27v1.191c0 0.108-0.088 0.196-0.196 0.196s-0.196-0.088-0.196-0.196v-1.191c-2.309 0.1-4.169 1.961-4.27 4.27h1.191c0.109 0 0.196 0.088 0.196 0.196s-0.088 0.196-0.196 0.196h-1.191c0.1 2.309 1.961 4.17 4.27 4.27v-1.191c0-0.108 0.088-0.196 0.196-0.196s0.196 0.088 0.196 0.196v1.191c2.309-0.1 4.169-1.961 4.27-4.27h-1.191c-0.109 0-0.196-0.088-0.196-0.196s0.087-0.196 0.196-0.196zM17.669 15.442l-1.521 0.615c-0.002 0.001-0.004 0.001-0.006 0.001-0.021 0.008-0.044 0.013-0.067 0.013-0.021 0-0.041-0.004-0.061-0.010-0.001-0.001-0.003-0.001-0.004-0.001l-2.465-0.855c-0.102-0.036-0.157-0.148-0.121-0.25s0.147-0.157 0.25-0.121l2.396 0.831 1.452-0.587c0.1-0.041 0.215 0.008 0.255 0.108s-0.009 0.215-0.109 0.255z"></path>
</symbol>
<symbol id="icon-crussade" viewBox="0 0 32 32">
<title>crussade</title>
<path class="path1" d="M19.68 11.669c-0.23-0.067-3.464-0.876-3.681-0.91-0.001 0-0.003 0-0.006 0.001-0.012 0.004-0.023 0.007-0.036 0.010-0.183 0.039-3.496 0.876-3.613 0.913-0.099 0.028-0.157 0.113-0.157 0.218v4.045c0 0.989 0.372 1.881 1.106 2.65 0.664 0.701 1.493 1.268 2.534 1.733 0.055 0.022 0.115 0.046 0.185 0.046 0.024 0 0.079-0.006 0.175-0.047 1.034-0.45 1.867-1.017 2.544-1.732 0.733-0.782 1.106-1.674 1.106-2.651v-4.058c0-0.096-0.063-0.183-0.157-0.218zM17.645 14.467h-1.437v3.165c0 0.108-0.087 0.196-0.196 0.196s-0.196-0.087-0.196-0.196v-3.165h-1.437c-0.108 0-0.196-0.087-0.196-0.196s0.087-0.196 0.196-0.196h1.437v-1.459c0-0.108 0.087-0.196 0.196-0.196s0.196 0.087 0.196 0.196v1.459h1.437c0.108 0 0.196 0.087 0.196 0.196s-0.087 0.196-0.196 0.196z"></path>
<path class="path2" d="M16.012 5.98c-5.295 0-9.588 4.292-9.588 9.588s4.292 9.588 9.588 9.588 9.588-4.292 9.588-9.588-4.292-9.588-9.588-9.588zM20.228 15.946c0 1.080-0.408 2.062-1.212 2.919-0.715 0.755-1.589 1.35-2.674 1.822-0.123 0.053-0.234 0.079-0.33 0.079-0.146 0-0.26-0.046-0.328-0.074-1.106-0.494-1.975-1.090-2.675-1.828-0.805-0.844-1.213-1.826-1.213-2.919v-4.045c0-0.28 0.173-0.518 0.431-0.591l0.001 0.001c0.262-0.070 3.113-0.799 3.62-0.914 0.063-0.028 0.128-0.028 0.164-0.028 0.165 0 3.487 0.851 3.795 0.934l0.001-0.003c0.251 0.090 0.42 0.326 0.42 0.588v4.058z"></path>
</symbol>
<symbol id="icon-arrow-left" viewBox="0 0 32 32">
<title>arrow-left</title>
<path class="path1" d="M26.667 14.667v2.667h-16l7.333 7.333-1.893 1.893-10.56-10.56 10.56-10.56 1.893 1.893-7.333 7.333h16z"></path>
</symbol>
<symbol id="icon-arrow-right" viewBox="0 0 32 32">
<title>arrow-right</title>
<path class="path1" d="M5.333 14.667v2.667h16l-7.333 7.333 1.893 1.893 10.56-10.56-10.56-10.56-1.893 1.893 7.333 7.333h-16z"></path>
</symbol>
<symbol id="icon-facebook" viewBox="0 0 32 32">
<title>facebook</title>
<path class="path1" d="M19.324 16.664l0.348-2.692h-2.665v-1.719c0-0.779 0.216-1.311 1.335-1.311l1.424-0.001v-2.407c-0.245-0.032-1.092-0.105-2.077-0.105-2.056 0-3.463 1.255-3.463 3.557v1.985h-2.324v2.692h2.324v6.907h2.78v-6.907h2.319z"></path>
</symbol>
<symbol id="icon-rupor" viewBox="0 0 32 32">
<title>rupor</title>
<path class="path1" d="M22.36 11.065c-0.297 0-0.545 0.248-0.545 0.545s0.248 0.545 0.545 0.545c2.008 0 3.645 1.636 3.645 3.645s-1.636 3.645-3.645 3.645c-0.297 0-0.545 0.248-0.545 0.545s0.248 0.545 0.545 0.545c2.604 0 4.736-2.133 4.736-4.736 0.001-2.604-2.132-4.736-4.736-4.736z"></path>
<path class="path2" d="M18.541 10.644c0.272-0.124 0.421-0.421 0.297-0.719-0.124-0.273-0.421-0.421-0.719-0.297l-10.712 4.389c-0.199 0.075-0.347 0.273-0.347 0.496v2.803c0 0.223 0.124 0.421 0.347 0.496l1.984 0.819c0 0.025-0.025 0.025-0.025 0.049l-0.571 1.387c-0.297 0.695 0.049 1.513 0.744 1.811l2.951 1.215c0.173 0.075 0.347 0.099 0.521 0.099 0.545 0 1.067-0.323 1.289-0.868l0.571-1.389c0-0.025 0-0.049 0.025-0.075l3.248 1.315c0.075 0.025 0.148 0.049 0.199 0.049 0.224 0 0.421-0.124 0.496-0.347 0.124-0.273-0.025-0.595-0.297-0.719l-10.391-4.191v-2.083l10.389-4.24zM13.88 20.563l-0.571 1.388c-0.049 0.149-0.248 0.223-0.396 0.149l-2.951-1.215c-0.149-0.049-0.223-0.248-0.149-0.397l0.571-1.389c0-0.025 0-0.025 0-0.049l3.521 1.439c-0.001 0.025-0.025 0.049-0.025 0.075z"></path>
<path class="path3" d="M20.203 8.809c-0.297 0-0.545 0.248-0.545 0.545v13.117c0 0.297 0.248 0.545 0.545 0.545s0.545-0.248 0.545-0.545v-13.117c0-0.297-0.247-0.545-0.545-0.545z"></path>
<path class="path4" d="M5.449 14.091c-0.297 0-0.545 0.248-0.545 0.545v2.803c0 0.297 0.248 0.545 0.545 0.545s0.545-0.248 0.545-0.545v-2.803c0-0.323-0.248-0.545-0.545-0.545z"></path>
<path class="path5" d="M24.493 15.827c0-1.315-1.067-2.405-2.405-2.405-0.297 0-0.545 0.248-0.545 0.545s0.248 0.545 0.545 0.545c0.72 0 1.315 0.595 1.315 1.315s-0.595 1.315-1.315 1.315c-0.297 0-0.545 0.248-0.545 0.545s0.248 0.545 0.545 0.545c1.339-0.025 2.405-1.092 2.405-2.405z"></path>
</symbol>
<symbol id="icon-search" viewBox="0 0 32 32">
<title>search</title>
<path class="path1" d="M25.404 23.836l-5.053-5.053c-0.053-0.055-0.081-0.081-0.135-0.108 2.297-3.027 2.053-7.377-0.703-10.133-3.027-3.027-7.944-3.027-10.971 0s-3.027 7.944 0 10.971c2.756 2.756 7.107 3 10.133 0.703 0.027 0.055 0.081 0.108 0.108 0.135l5.053 5.053c0.432 0.432 1.135 0.432 1.568 0 0.431-0.432 0.431-1.133-0.001-1.567zM10.001 18.053c-2.216-2.216-2.216-5.837 0-8.052 2.216-2.216 5.837-2.216 8.052 0 2.216 2.216 2.216 5.837 0 8.052-2.216 2.216-5.836 2.243-8.052 0z"></path>
</symbol>
<symbol id="icon-tick" viewBox="0 0 32 32">
<title>tick</title>
<path class="path1" d="M24.146 11.817l-10.409 10.409-5.883-5.883 2.706-2.583 3.347 3.451 8.173-7.931 2.066 2.537z"></path>
</symbol>
<symbol id="icon-twitter" viewBox="0 0 32 32">
<title>twitter</title>
<path class="path1" d="M23.819 12.821c-0.547 0.243-1.135 0.405-1.751 0.48 0.631-0.377 1.115-0.976 1.341-1.687-0.588 0.349-1.241 0.603-1.935 0.739-0.556-0.592-1.351-0.963-2.228-0.963-1.683 0-3.047 1.365-3.047 3.049 0 0.239 0.027 0.471 0.079 0.693-2.533-0.127-4.78-1.34-6.285-3.185-0.26 0.451-0.412 0.975-0.412 1.533 0 1.057 0.537 1.991 1.355 2.536-0.497-0.015-0.969-0.153-1.379-0.381v0.039c-0.001 1.48 1.049 2.712 2.443 2.992-0.255 0.071-0.525 0.107-0.801 0.107-0.199 0-0.388-0.019-0.575-0.053 0.388 1.211 1.515 2.092 2.849 2.117-1.044 0.816-2.359 1.305-3.788 1.305-0.247 0-0.488-0.015-0.727-0.043 1.349 0.865 2.951 1.369 4.673 1.369 5.608 0 8.676-4.644 8.676-8.675 0-0.131-0.004-0.263-0.008-0.393 0.593-0.431 1.111-0.968 1.519-1.58z"></path>
</symbol>
<symbol id="icon-up" viewBox="0 0 32 32">
<title>up</title>
<path class="path1" d="M16 3.809c-6.608 0-12.191 5.583-12.191 12.191s5.583 12.191 12.191 12.191c6.608 0 12.191-5.583 12.191-12.191s-5.583-12.191-12.191-12.191zM21.104 15.516c-0.113 0.113-0.261 0.169-0.411 0.169-0.148 0-0.297-0.056-0.411-0.169l-3.993-3.993v9.992c0 0.32-0.26 0.58-0.58 0.58s-0.58-0.26-0.58-0.58v-9.835l-3.836 3.836c-0.227 0.227-0.595 0.227-0.821 0s-0.227-0.595 0-0.821l4.905-4.905c0.217-0.217 0.603-0.217 0.821 0l4.905 4.905c0.227 0.228 0.227 0.595 0 0.821z"></path>
</symbol>
<symbol id="icon-vkontakte" viewBox="0 0 32 32">
<title>vkontakte</title>
<path class="path1" d="M21.599 17.661c1.227 1.137 1.483 1.688 1.52 1.759 0.509 0.84-0.557 0.907-0.557 0.907l-2.044 0.029c0 0-0.441 0.084-1.016-0.311-0.764-0.525-1.487-1.889-2.049-1.708-0.567 0.18-0.549 1.405-0.549 1.405s0.004 0.177-0.127 0.315c-0.141 0.152-0.416 0.092-0.416 0.092h-0.916c0 0-2.019 0.209-3.795-1.641-1.933-2.015-3.645-5.976-3.645-5.976s-0.096-0.239 0.008-0.369c0.121-0.144 0.449-0.139 0.449-0.139l2.187-0.009c0 0 0.207 0.039 0.355 0.144 0.121 0.092 0.188 0.259 0.188 0.259s0.353 0.895 0.824 1.7c0.911 1.579 1.335 1.923 1.645 1.755 0.452-0.247 0.317-2.229 0.317-2.229s0.009-0.723-0.231-1.041c-0.181-0.247-0.525-0.324-0.676-0.339-0.127-0.016 0.075-0.303 0.34-0.433 0.395-0.192 1.088-0.2 1.911-0.192 0.637 0.003 0.823 0.048 1.071 0.104 0.755 0.181 0.499 0.885 0.499 2.569 0 0.541-0.096 1.301 0.289 1.552 0.168 0.107 0.58 0.019 1.604-1.723 0.483-0.824 0.848-1.792 0.848-1.792s0.081-0.172 0.201-0.249c0.127-0.075 0.3-0.051 0.3-0.051l2.3-0.015c0 0 0.692-0.079 0.805 0.231 0.117 0.327-0.26 1.089-1.2 2.34-1.548 2.063-1.72 1.869-0.44 3.057v0z"></path>
</symbol>
</defs>
</svg>
