<svg style="position: absolute; width: 0; height: 0; overflow: hidden;" version="1.1" xmlns="http://www.w3.org/2000/svg" xmlns:xlink="http://www.w3.org/1999/xlink">
<defs>
<symbol id="icon-arrow-left" viewBox="0 0 32 32">
<title>arrow-left</title>
<path class="path1" d="M26.667 14.667v2.667h-16l7.333 7.333-1.893 1.893-10.56-10.56 10.56-10.56 1.893 1.893-7.333 7.333h16z"></path>
</symbol>
<symbol id="icon-arrow-right" viewBox="0 0 32 32">
<title>arrow-right</title>
<path class="path1" d="M5.333 14.667v2.667h16l-7.333 7.333 1.893 1.893 10.56-10.56-10.56-10.56-1.893 1.893 7.333 7.333h-16z"></path>
</symbol>
<symbol id="icon-facebook" viewBox="0 0 32 32">
<title>facebook</title>
<path class="path1" d="M19.324 16.664l0.348-2.692h-2.665v-1.719c0-0.779 0.216-1.311 1.335-1.311l1.424-0.001v-2.407c-0.245-0.032-1.092-0.105-2.077-0.105-2.056 0-3.463 1.255-3.463 3.557v1.985h-2.324v2.692h2.324v6.907h2.78v-6.907h2.319z"></path>
</symbol>
<symbol id="icon-horse" viewBox="0 0 32 32">
<title>horse</title>
<path class="path1" d="M17.072 8.263v1.365c0 0.141-0.114 0.256-0.256 0.256s-0.256-0.115-0.256-0.256v-0.49h-1.279c-0.009 0-0.017-0.001-0.026-0.001-0.004-0-0.526-0.046-0.85 0.249-0.182 0.166-0.274 0.42-0.274 0.754 0 0.084-0.041 0.163-0.11 0.21 0 0-1.108 0.767-1.598 1.108-1.059 0.736-1.431 1.36-1.136 1.907 0.121 0.224 0.266 0.357 0.444 0.405 0.271 0.074 0.653-0.038 1.137-0.332 0.121-0.073 0.278-0.035 0.352 0.086s0.035 0.278-0.086 0.352c-0.225 0.137-0.434 0.238-0.63 0.309 0.119 0.247 0.355 0.599 0.734 0.602 0.14 0.002 0.248-0.036 0.322-0.115 0.141-0.151 0.153-0.432 0.146-0.518-0.009-0.112 0.056-0.217 0.16-0.258l1.194-0.476c0.096-0.038 0.205-0.015 0.277 0.058 0.074 0.073 0.752 0.704 1.545 0.037 0.639-0.537 0.119-1.357 0.096-1.392-0.077-0.118-0.044-0.277 0.075-0.354s0.276-0.045 0.354 0.073c0.279 0.423 0.597 1.399-0.195 2.064-0.324 0.272-0.647 0.391-0.948 0.416-0.251 1.745-1.844 2.156-2.492 2.249l0.357 3.684h4.484c0.064-0.559 0.256-2.019 0.625-3.24 0.127-0.421 0.299-0.838 0.488-1.267-0.624 0.482-1.512 0.917-2.778 1.146-0.015 0.003-0.031 0.004-0.046 0.004-0.122 0-0.229-0.087-0.252-0.21-0.025-0.139 0.067-0.272 0.207-0.297 2.298-0.415 3.223-1.56 3.585-2.284 0.445-1.144 0.693-2.316 0.131-3.517-0.934-1.994-2.822-2.288-3.499-2.328zM12.020 13.343c-0.199 0-0.36-0.161-0.36-0.36s0.161-0.36 0.36-0.36c0.199 0 0.36 0.161 0.36 0.36s-0.161 0.36-0.36 0.36zM15.585 10.442c-0.181 0.133-0.616 0.26-0.75 0.079s0.087-0.603 0.269-0.736c0.182-0.133 0.437-0.093 0.57 0.088s0.093 0.437-0.089 0.569z"></path>
<path class="path2" d="M13.247 20.767h6.158v0.724h-6.158v-0.724z"></path>
<path class="path3" d="M12.479 22.004v0.943h7.693v-0.943h-7.182z"></path>
<path class="path4" d="M16.043 3.058c-6.928 0-12.544 5.616-12.544 12.544s5.616 12.544 12.544 12.544 12.544-5.616 12.544-12.544-5.616-12.544-12.544-12.544zM21.171 13.552c-0.005 0.038-0.059 0.373-0.287 0.823-0.15 0.379-0.317 0.75-0.479 1.108-0.264 0.585-0.514 1.137-0.678 1.68-0.341 1.131-0.529 2.511-0.599 3.092h0.533c0.142 0 0.256 0.115 0.256 0.256v0.98h0.512c0.142 0 0.256 0.115 0.256 0.256v1.455c0 0.141-0.114 0.256-0.256 0.256h-8.205c-0.142 0-0.256-0.115-0.256-0.256v-1.455c0-0.141 0.114-0.256 0.256-0.256h0.511v-0.98c0-0.141 0.114-0.256 0.256-0.256h0.623l-0.377-3.887c-0.007-0.071 0.016-0.141 0.063-0.194s0.114-0.084 0.185-0.087c0.084-0.002 1.993-0.082 2.266-1.81-0.261-0.068-0.485-0.194-0.648-0.324l-0.888 0.354c-0.014 0.194-0.072 0.491-0.281 0.714-0.169 0.182-0.408 0.277-0.689 0.277-0.004 0-0.007 0-0.011 0-0.726-0.006-1.097-0.659-1.243-1.003-0.028 0.002-0.059 0.008-0.086 0.008-0.108 0-0.21-0.013-0.308-0.040-0.316-0.086-0.572-0.307-0.761-0.656-0.434-0.806 0.002-1.671 1.295-2.57 0.398-0.277 1.204-0.835 1.493-1.036 0.026-0.422 0.174-0.758 0.442-0.999 0.462-0.417 1.117-0.386 1.229-0.378h1.268v-0.624c0-0.137 0.108-0.25 0.245-0.256 0.028-0.002 2.957-0.090 4.229 2.626 0.514 1.098 0.432 2.165 0.136 3.177 0 0.001 0 0.002 0 0.003z"></path>
</symbol>
<symbol id="icon-rupor" viewBox="0 0 32 32">
<title>rupor</title>
<path class="path1" d="M22.36 11.065c-0.297 0-0.545 0.248-0.545 0.545s0.248 0.545 0.545 0.545c2.008 0 3.645 1.636 3.645 3.645s-1.636 3.645-3.645 3.645c-0.297 0-0.545 0.248-0.545 0.545s0.248 0.545 0.545 0.545c2.604 0 4.736-2.133 4.736-4.736 0.001-2.604-2.132-4.736-4.736-4.736z"></path>
<path class="path2" d="M18.541 10.644c0.272-0.124 0.421-0.421 0.297-0.719-0.124-0.273-0.421-0.421-0.719-0.297l-10.712 4.389c-0.199 0.075-0.347 0.273-0.347 0.496v2.803c0 0.223 0.124 0.421 0.347 0.496l1.984 0.819c0 0.025-0.025 0.025-0.025 0.049l-0.571 1.387c-0.297 0.695 0.049 1.513 0.744 1.811l2.951 1.215c0.173 0.075 0.347 0.099 0.521 0.099 0.545 0 1.067-0.323 1.289-0.868l0.571-1.389c0-0.025 0-0.049 0.025-0.075l3.248 1.315c0.075 0.025 0.148 0.049 0.199 0.049 0.224 0 0.421-0.124 0.496-0.347 0.124-0.273-0.025-0.595-0.297-0.719l-10.391-4.191v-2.083l10.389-4.24zM13.88 20.563l-0.571 1.388c-0.049 0.149-0.248 0.223-0.396 0.149l-2.951-1.215c-0.149-0.049-0.223-0.248-0.149-0.397l0.571-1.389c0-0.025 0-0.025 0-0.049l3.521 1.439c-0.001 0.025-0.025 0.049-0.025 0.075z"></path>
<path class="path3" d="M20.203 8.809c-0.297 0-0.545 0.248-0.545 0.545v13.117c0 0.297 0.248 0.545 0.545 0.545s0.545-0.248 0.545-0.545v-13.117c0-0.297-0.247-0.545-0.545-0.545z"></path>
<path class="path4" d="M5.449 14.091c-0.297 0-0.545 0.248-0.545 0.545v2.803c0 0.297 0.248 0.545 0.545 0.545s0.545-0.248 0.545-0.545v-2.803c0-0.323-0.248-0.545-0.545-0.545z"></path>
<path class="path5" d="M24.493 15.827c0-1.315-1.067-2.405-2.405-2.405-0.297 0-0.545 0.248-0.545 0.545s0.248 0.545 0.545 0.545c0.72 0 1.315 0.595 1.315 1.315s-0.595 1.315-1.315 1.315c-0.297 0-0.545 0.248-0.545 0.545s0.248 0.545 0.545 0.545c1.339-0.025 2.405-1.092 2.405-2.405z"></path>
</symbol>
<symbol id="icon-search" viewBox="0 0 32 32">
<title>search</title>
<path class="path1" d="M25.404 23.836l-5.053-5.053c-0.053-0.055-0.081-0.081-0.135-0.108 2.297-3.027 2.053-7.377-0.703-10.133-3.027-3.027-7.944-3.027-10.971 0s-3.027 7.944 0 10.971c2.756 2.756 7.107 3 10.133 0.703 0.027 0.055 0.081 0.108 0.108 0.135l5.053 5.053c0.432 0.432 1.135 0.432 1.568 0 0.431-0.432 0.431-1.133-0.001-1.567zM10.001 18.053c-2.216-2.216-2.216-5.837 0-8.052 2.216-2.216 5.837-2.216 8.052 0 2.216 2.216 2.216 5.837 0 8.052-2.216 2.216-5.836 2.243-8.052 0z"></path>
</symbol>
<symbol id="icon-tick" viewBox="0 0 32 32">
<title>tick</title>
<path class="path1" d="M24.146 11.817l-10.409 10.409-5.883-5.883 2.706-2.583 3.347 3.451 8.173-7.931 2.066 2.537z"></path>
</symbol>
<symbol id="icon-twitter" viewBox="0 0 32 32">
<title>twitter</title>
<path class="path1" d="M23.819 12.821c-0.547 0.243-1.135 0.405-1.751 0.48 0.631-0.377 1.115-0.976 1.341-1.687-0.588 0.349-1.241 0.603-1.935 0.739-0.556-0.592-1.351-0.963-2.228-0.963-1.683 0-3.047 1.365-3.047 3.049 0 0.239 0.027 0.471 0.079 0.693-2.533-0.127-4.78-1.34-6.285-3.185-0.26 0.451-0.412 0.975-0.412 1.533 0 1.057 0.537 1.991 1.355 2.536-0.497-0.015-0.969-0.153-1.379-0.381v0.039c-0.001 1.48 1.049 2.712 2.443 2.992-0.255 0.071-0.525 0.107-0.801 0.107-0.199 0-0.388-0.019-0.575-0.053 0.388 1.211 1.515 2.092 2.849 2.117-1.044 0.816-2.359 1.305-3.788 1.305-0.247 0-0.488-0.015-0.727-0.043 1.349 0.865 2.951 1.369 4.673 1.369 5.608 0 8.676-4.644 8.676-8.675 0-0.131-0.004-0.263-0.008-0.393 0.593-0.431 1.111-0.968 1.519-1.58z"></path>
</symbol>
<symbol id="icon-up" viewBox="0 0 32 32">
<title>up</title>
<path class="path1" d="M16 3.809c-6.608 0-12.191 5.583-12.191 12.191s5.583 12.191 12.191 12.191c6.608 0 12.191-5.583 12.191-12.191s-5.583-12.191-12.191-12.191zM21.104 15.516c-0.113 0.113-0.261 0.169-0.411 0.169-0.148 0-0.297-0.056-0.411-0.169l-3.993-3.993v9.992c0 0.32-0.26 0.58-0.58 0.58s-0.58-0.26-0.58-0.58v-9.835l-3.836 3.836c-0.227 0.227-0.595 0.227-0.821 0s-0.227-0.595 0-0.821l4.905-4.905c0.217-0.217 0.603-0.217 0.821 0l4.905 4.905c0.227 0.228 0.227 0.595 0 0.821z"></path>
</symbol>
<symbol id="icon-vkontakte" viewBox="0 0 32 32">
<title>vkontakte</title>
<path class="path1" d="M21.599 17.661c1.227 1.137 1.483 1.688 1.52 1.759 0.509 0.84-0.557 0.907-0.557 0.907l-2.044 0.029c0 0-0.441 0.084-1.016-0.311-0.764-0.525-1.487-1.889-2.049-1.708-0.567 0.18-0.549 1.405-0.549 1.405s0.004 0.177-0.127 0.315c-0.141 0.152-0.416 0.092-0.416 0.092h-0.916c0 0-2.019 0.209-3.795-1.641-1.933-2.015-3.645-5.976-3.645-5.976s-0.096-0.239 0.008-0.369c0.121-0.144 0.449-0.139 0.449-0.139l2.187-0.009c0 0 0.207 0.039 0.355 0.144 0.121 0.092 0.188 0.259 0.188 0.259s0.353 0.895 0.824 1.7c0.911 1.579 1.335 1.923 1.645 1.755 0.452-0.247 0.317-2.229 0.317-2.229s0.009-0.723-0.231-1.041c-0.181-0.247-0.525-0.324-0.676-0.339-0.127-0.016 0.075-0.303 0.34-0.433 0.395-0.192 1.088-0.2 1.911-0.192 0.637 0.003 0.823 0.048 1.071 0.104 0.755 0.181 0.499 0.885 0.499 2.569 0 0.541-0.096 1.301 0.289 1.552 0.168 0.107 0.58 0.019 1.604-1.723 0.483-0.824 0.848-1.792 0.848-1.792s0.081-0.172 0.201-0.249c0.127-0.075 0.3-0.051 0.3-0.051l2.3-0.015c0 0 0.692-0.079 0.805 0.231 0.117 0.327-0.26 1.089-1.2 2.34-1.548 2.063-1.72 1.869-0.44 3.057v0z"></path>
</symbol>
</defs>
</svg>
