<?xml version="1.0" encoding="utf-8"?>
<!-- Generated by IcoMoon.io -->
<!DOCTYPE svg PUBLIC "-//W3C//DTD SVG 1.1//EN" "http://www.w3.org/Graphics/SVG/1.1/DTD/svg11.dtd">
<svg version="1.1" xmlns="http://www.w3.org/2000/svg" xmlns:xlink="http://www.w3.org/1999/xlink" width="32" height="32" viewBox="0 0 32 32">
<path fill="#000" d="M23.819 12.821c-0.547 0.243-1.135 0.405-1.751 0.48 0.631-0.377 1.115-0.976 1.341-1.687-0.588 0.349-1.241 0.603-1.935 0.739-0.556-0.592-1.351-0.963-2.228-0.963-1.683 0-3.047 1.365-3.047 3.049 0 0.239 0.027 0.471 0.079 0.693-2.533-0.127-4.78-1.34-6.285-3.185-0.26 0.451-0.412 0.975-0.412 1.533 0 1.057 0.537 1.991 1.355 2.536-0.497-0.015-0.969-0.153-1.379-0.381v0.039c-0.001 1.48 1.049 2.712 2.443 2.992-0.255 0.071-0.525 0.107-0.801 0.107-0.199 0-0.388-0.019-0.575-0.053 0.388 1.211 1.515 2.092 2.849 2.117-1.044 0.816-2.359 1.305-3.788 1.305-0.247 0-0.488-0.015-0.727-0.043 1.349 0.865 2.951 1.369 4.673 1.369 5.608 0 8.676-4.644 8.676-8.675 0-0.131-0.004-0.263-0.008-0.393 0.593-0.431 1.111-0.968 1.519-1.58z"></path>
</svg>
