<?xml version="1.0" encoding="utf-8"?>
<!-- Generated by IcoMoon.io -->
<!DOCTYPE svg PUBLIC "-//W3C//DTD SVG 1.1//EN" "http://www.w3.org/Graphics/SVG/1.1/DTD/svg11.dtd">
<svg version="1.1" xmlns="http://www.w3.org/2000/svg" xmlns:xlink="http://www.w3.org/1999/xlink" width="32" height="32" viewBox="0 0 32 32">
<path fill="#000" d="M16 3.809c-6.608 0-12.191 5.583-12.191 12.191s5.583 12.191 12.191 12.191c6.608 0 12.191-5.583 12.191-12.191s-5.583-12.191-12.191-12.191zM21.104 15.516c-0.113 0.113-0.261 0.169-0.411 0.169-0.148 0-0.297-0.056-0.411-0.169l-3.993-3.993v9.992c0 0.32-0.26 0.58-0.58 0.58s-0.58-0.26-0.58-0.58v-9.835l-3.836 3.836c-0.227 0.227-0.595 0.227-0.821 0s-0.227-0.595 0-0.821l4.905-4.905c0.217-0.217 0.603-0.217 0.821 0l4.905 4.905c0.227 0.228 0.227 0.595 0 0.821z"></path>
</svg>
