<?xml version="1.0" encoding="utf-8"?>
<!-- Generated by IcoMoon.io -->
<!DOCTYPE svg PUBLIC "-//W3C//DTD SVG 1.1//EN" "http://www.w3.org/Graphics/SVG/1.1/DTD/svg11.dtd">
<svg version="1.1" xmlns="http://www.w3.org/2000/svg" xmlns:xlink="http://www.w3.org/1999/xlink" width="32" height="32" viewBox="0 0 32 32">
<path fill="#000" d="M21.599 17.661c1.227 1.137 1.483 1.688 1.52 1.759 0.509 0.84-0.557 0.907-0.557 0.907l-2.044 0.029c0 0-0.441 0.084-1.016-0.311-0.764-0.525-1.487-1.889-2.049-1.708-0.567 0.18-0.549 1.405-0.549 1.405s0.004 0.177-0.127 0.315c-0.141 0.152-0.416 0.092-0.416 0.092h-0.916c0 0-2.019 0.209-3.795-1.641-1.933-2.015-3.645-5.976-3.645-5.976s-0.096-0.239 0.008-0.369c0.121-0.144 0.449-0.139 0.449-0.139l2.187-0.009c0 0 0.207 0.039 0.355 0.144 0.121 0.092 0.188 0.259 0.188 0.259s0.353 0.895 0.824 1.7c0.911 1.579 1.335 1.923 1.645 1.755 0.452-0.247 0.317-2.229 0.317-2.229s0.009-0.723-0.231-1.041c-0.181-0.247-0.525-0.324-0.676-0.339-0.127-0.016 0.075-0.303 0.34-0.433 0.395-0.192 1.088-0.2 1.911-0.192 0.637 0.003 0.823 0.048 1.071 0.104 0.755 0.181 0.499 0.885 0.499 2.569 0 0.541-0.096 1.301 0.289 1.552 0.168 0.107 0.58 0.019 1.604-1.723 0.483-0.824 0.848-1.792 0.848-1.792s0.081-0.172 0.201-0.249c0.127-0.075 0.3-0.051 0.3-0.051l2.3-0.015c0 0 0.692-0.079 0.805 0.231 0.117 0.327-0.26 1.089-1.2 2.34-1.548 2.063-1.72 1.869-0.44 3.057v0z"></path>
</svg>
